<svg width="10" height="11" viewBox="0 0 10 11" fill="none" xmlns="http://www.w3.org/2000/svg">
<path fill-rule="evenodd" clip-rule="evenodd" d="M4.75 0.900391C7.28695 0.900391 9.34961 2.96305 9.34961 5.5C9.34961 8.03695 7.28695 10.0996 4.75 10.0996C2.21305 10.0996 0.150391 8.03695 0.150391 5.5C0.150391 2.96305 2.21305 0.900391 4.75 0.900391ZM4.36683 2.69182H5.12334C5.50463 2.69182 5.79664 3.03074 5.74028 3.40786L5.36203 5.93687C5.31626 6.24212 5.05413 6.46832 4.74509 6.46832C4.43605 6.46832 4.17393 6.24213 4.12815 5.93687L3.7499 3.40786C3.69354 3.03074 3.98554 2.69182 4.36683 2.69182ZM4.75 7.04934C5.09876 7.04934 5.37942 7.33001 5.37942 7.67876C5.37942 8.02752 5.09876 8.30818 4.75 8.30818C4.40124 8.30818 4.12058 8.02752 4.12058 7.67876C4.12058 7.33984 4.40124 7.04934 4.75 7.04934Z" fill="#3A3557"/>
</svg>
